ply
format ascii 1.0
comment VCGLIB generated
comment TextureFile dummy.png
element vertex 18
property float x
property float y
property float z
property float nx
property float ny
property float nz
property uchar red
property uchar green
property uchar blue
property uchar alpha
property float texture_u
property float texture_v
element face 12
property list uchar int vertex_indices
end_header
-15 -15 -100 -0.5773503 -0.5773503 -0.5773503 102 102 102 255 0.2999754 1.317284e-06
15 -15 -100 0.5773503 -0.5773503 -0.5773503 199 199 199 255 0.449963 2.440764e-06
15 -15 100 0.5773503 -0.5773503 0.5773503 214 214 214 255 0.4499955 0.9999794
-15 -15 100 -0.5773503 -0.5773503 0.5773503 164 164 164 255 0.3000076 0.9999903
15 15 -100 0.5773503 0.5773503 -0.5773503 124 124 124 255 0.5999506 0
15 15 100 0.5773503 0.5773503 0.5773503 137 137 137 255 0.5999834 0.9999723
-15 15 -100 -0.5773503 0.5773503 -0.5773503 56 56 56 255 0.1499879 6.392384e-06
-15 15 100 -0.5773503 0.5773503 0.5773503 87 87 87 255 0.1500197 0.9999982
15 15 -100 0.5773503 0.5773503 -0.5773503 124 124 124 255 0 1.344347e-05
15 15 100 0.5773503 0.5773503 0.5773503 137 137 137 255 3.238829e-05 1
15 -15 -100 0.5773503 -0.5773503 -0.5773503 199 199 199 255 0.7723029 0.177781
-15 -15 -100 -0.5773503 -0.5773503 -0.5773503 102 102 102 255 0.7723017 0.3277733
-15 15 -100 -0.5773503 0.5773503 -0.5773503 56 56 56 255 0.6223097 0.3277746
15 15 -100 0.5773503 0.5773503 -0.5773503 124 124 124 255 0.6223097 0.1777813
15 -15 100 0.5773503 -0.5773503 0.5773503 214 214 214 255 0.6223097 1.007291e-05
15 15 100 0.5773503 0.5773503 0.5773503 137 137 137 255 0.7723026 0
-15 15 100 -0.5773503 0.5773503 0.5773503 87 87 87 255 0.7723131 0.1499926
-15 -15 100 -0.5773503 -0.5773503 0.5773503 164 164 164 255 0.6223206 0.1500028
3 0 1 2 
3 0 2 3 
3 1 4 5 
3 1 5 2 
3 8 6 7 
3 8 7 9 
3 6 0 3 
3 6 3 7 
3 10 11 12 
3 10 12 13 
3 14 15 16 
3 14 16 17 
