ply
format ascii 1.0
comment VCGLIB generated
comment TextureFile dummy.png
element vertex 40
property float x
property float y
property float z
property float nx
property float ny
property float nz
property uchar red
property uchar green
property uchar blue
property uchar alpha
property float texture_u
property float texture_v
element face 58
property list uchar int vertex_indices
end_header
-14.00409 5 29.94567 -0.1225237 0.9631686 0.2393622 89 89 89 255 0.6278912 0.8135672
-31.57398 5 16.89375 -0.1178806 0.9704069 0.2107479 166 166 166 255 0.7883469 0.6768979
-36.75 0 27.25 -0.17725 0.9180468 0.3546443 178 178 178 255 0.8356165 0.7853403
-19.25 0 40.25 -0.1800696 0.917861 0.3537033 116 116 116 255 0.6757991 0.921466
4.749999 0 47.75 -0.04823561 0.9181868 0.3932002 149 149 149 255 0.456621 1
6.161088 5 36.24729 -0.03233027 0.9629584 0.2677049 118 118 118 255 0.4437343 0.8795528
13.25 0 47.25 0.1360604 0.9223575 0.3615857 177 177 177 255 0.3789954 0.9947644
9.045955 5 36.07759 0.0951486 0.9613531 0.2583543 130 130 130 255 0.4173886 0.8777758
22.25 0 40.25 0.2215258 0.9162063 0.3339047 190 190 190 255 0.2968037 0.921466
15.92975 5 30.72353 0.1437629 0.9659878 0.2149415 144 144 144 255 0.3545228 0.8217123
34.75 0 33.25 0.2643339 0.9195655 0.2907351 194 194 194 255 0.1826484 0.8481675
26.87845 5 24.59225 0.1865003 0.9607144 0.2055372 188 188 188 255 0.2545347 0.7575105
43.75 0 20.25 0.2848756 0.9177905 0.2765982 193 193 193 255 0.1004567 0.7120419
35.45827 5 12.19919 0.1795726 0.967312 0.1790561 184 184 184 255 0.1761802 0.6277402
53.25 0 13.25 0.3237024 0.9286193 0.1813368 144 144 144 255 0.0136987 0.6387435
42.33242 5 7.134019 0.2413659 0.9613572 0.1324196 158 158 158 255 0.1134025 0.5747018
54.75 0 -4.25 0.335901 0.931699 -0.1382302 84 84 84 255 0 0.4554974
42.88985 5 0.6306959 0.255398 0.9614845 -0.1015845 136 136 136 254 0.1083118 0.5066041
44.75 0 -12.75 0.318626 0.9202242 -0.2272992 110 110 110 255 0.09132421 0.3664921
35.17978 5 -5.922865 0.2010393 0.9677467 -0.1518212 134 134 134 255 0.1787235 0.4379805
30.324 5 -18.3321 0.2382904 0.9606347 -0.1428241 134 134 134 255 0.2230685 0.3080409
40.25 0 -24.25 0.3410735 0.917779 -0.2033488 136 136 136 255 0.1324201 0.2460733
34.75 0 -30.75 0.2683648 0.9170393 -0.2949905 141 141 141 255 0.1826484 0.1780105
27.01287 5 -22.24524 0.1851785 0.9613922 -0.2035536 132 132 132 255 0.2533071 0.2670656
23.25 0 -38.75 0.2609169 0.9165714 -0.3030171 106 106 106 255 0.2876713 0.09424081
15.77178 5 -30.06513 0.1713151 0.9655827 -0.1957072 107 107 107 255 0.3559655 0.1851818
14.75 0 -47.75 0.1478878 0.9275874 -0.3430901 92 92 92 255 0.3652968 0
9.83607 5 -36.35 0.1067565 0.9613746 -0.2536968 95 95 95 255 0.4101729 0.1193717
-5.250001 0 -47.75 -0.08447392 0.9192069 -0.3846073 143 143 143 255 0.5479452 0
-2.746141 5 -36.35 -0.05793097 0.9630691 -0.2629486 126 126 126 255 0.5250789 0.1193717
-24.75 0 -38.75 -0.2493863 0.9207489 -0.3000465 201 201 201 255 0.7260274 0.09424081
-17.20762 5 -29.67547 -0.1728228 0.9627175 -0.2081044 197 197 197 255 0.6571473 0.1892621
-33.25 0 -26.75 -0.3102482 0.9161437 -0.2538245 201 201 201 255 0.803653 0.2198953
-24.40539 5 -19.51392 -0.1924578 0.9685258 -0.1578537 211 211 211 255 0.7228802 0.2956657
-49.25 0 -9.750001 -0.3406698 0.9198765 -0.1943487 122 122 122 255 0.9497717 0.3979057
-39.06409 5 -3.939046 -0.2323131 0.9647278 -0.1238184 131 131 131 255 0.8567497 0.4587534
-54.75 0 9.249999 -0.3762464 0.9265127 0.00360346 106 106 106 255 1 0.5968586
-42.03535 5 11.55291 -0.2228074 0.9701277 0.09596389 133 133 133 255 0.8838845 0.6209729
-50.25 0 23.25 -0.2438042 0.9367115 0.2512589 145 145 145 255 0.9589041 0.7434555
6.62019 8.8 0.1896374 0.01623023 0.9998683 -0.0003350878 117 117 117 255 0.4395416 0.5019857
3 0 1 2 
3 0 2 3 
3 3 4 5 
3 3 5 0 
3 6 7 5 
3 6 5 4 
3 6 8 9 
3 6 9 7 
3 10 11 9 
3 10 9 8 
3 10 12 13 
3 10 13 11 
3 12 14 15 
3 12 15 13 
3 16 17 15 
3 16 15 14 
3 16 18 19 
3 16 19 17 
3 20 19 18 
3 20 18 21 
3 22 23 20 
3 22 20 21 
3 22 24 25 
3 22 25 23 
3 24 26 27 
3 24 27 25 
3 26 28 29 
3 26 29 27 
3 28 30 31 
3 28 31 29 
3 32 33 31 
3 32 31 30 
3 34 35 33 
3 34 33 32 
3 36 37 35 
3 36 35 34 
3 36 38 37 
3 38 2 1 
3 38 1 37 
3 37 1 39 
3 35 37 39 
3 33 35 39 
3 31 33 39 
3 29 31 39 
3 27 29 39 
3 25 27 39 
3 23 25 39 
3 20 23 39 
3 19 20 39 
3 17 19 39 
3 15 17 39 
3 13 15 39 
3 11 13 39 
3 9 11 39 
3 7 9 39 
3 5 7 39 
3 0 5 39 
3 1 0 39 
