ply
format ascii 1.0
comment VCGLIB generated
comment TextureFile dummy.png
element vertex 3
property float x
property float y
property float z
property float nx
property float ny
property float nz
property uchar red
property uchar green
property uchar blue
property uchar alpha
property float texture_u
property float texture_v
element face 2
property list uchar int vertex_indices
end_header
-15 10.8 0 0 0 0 176 176 176 255 0 0.81836
-15 -10.8 0 0 0 0 188 188 188 255 0 0.4101804
15 10.8 0 0 0 0 120 120 120 255 0.5898196 0.81836
3 0 1 2 
3 0 2 1 
