ply
format ascii 1.0
comment VCGLIB generated
comment TextureFile dummy.png
element vertex 3
property float x
property float y
property float z
property float nx
property float ny
property float nz
property uchar red
property uchar green
property uchar blue
property uchar alpha
property float texture_u
property float texture_v
element face 2
property list uchar int vertex_indices
end_header
-7.650001 15.606 0 0 0 0 167 167 167 255 0.5922653 1
-7.650001 -15.606 0 0 0 0 167 167 167 255 0.5922653 0.4101804
7.650001 15.606 0 0 0 0 129 129 129 255 0.8930732 1
3 0 1 2 
3 0 2 1 
