ply
format ascii 1.0
comment VCGLIB generated
comment TextureFile dummy.png
element vertex 4
property float x
property float y
property float z
property float nx
property float ny
property float nz
property uchar red
property uchar green
property uchar blue
property uchar alpha
property float texture_u
property float texture_v
element face 4
property list uchar int vertex_indices
end_header
-15 10.8 -1.665335e-15 0 -2.220446e-16 -1 176 176 176 255 0 0.4081796
-15 -10.8 1.665335e-15 0 0 0 188 188 188 255 0 0
15 -10.8 1.665335e-15 0 -1.110223e-16 -1 116 116 116 255 0.5898195 0
15 10.8 -1.665335e-15 0 0 0 120 120 120 255 0.5898195 0.4081796
3 0 1 2 
3 0 2 3 
3 0 3 2 
3 0 2 1 
