ply
format ascii 1.0
comment VCGLIB generated
comment TextureFile dummy.png
element vertex 24
property float x
property float y
property float z
property float nx
property float ny
property float nz
property uchar red
property uchar green
property uchar blue
property uchar alpha
property float texture_u
property float texture_v
element face 16
property list uchar int vertex_indices
end_header
-100 24.75 14 0 0.6846976 0.7288274 137 137 137 255 3.159046e-06 0.1225532
-100 0 14 0 0 1 110 110 110 255 0 0
100 0 14 0 0 1 129 129 129 255 0.9999866 2.074242e-05
100 24.75 14 0 0.6846973 0.7288275 135 135 135 255 0.9999835 0.1225681
-100 25 10 0 0.6846973 0.7288275 150 150 150 255 2.741814e-06 0.1421612
100 25 10 0 0.6846976 0.7288274 137 137 137 255 0.999985 0.1421751
100 200 10 0 0 1 81 81 81 255 1 1
-100 200 10 0 0 1 190 190 190 255 3.278255e-07 1
-100 300 10 0 0 1 92 92 92 255 1 1
100 300 10 0 0 1 187 187 187 255 0 1
100 24.75 -14.00001 -6.255573e-08 0.6846976 -0.7288274 124 124 124 255 3.159046e-06 0.1225532
100 0 -14.00001 -8.583068e-08 0 -1 155 155 155 255 0 0
-100 0 -13.99999 -8.583068e-08 0 -1 174 174 174 255 0.9999866 2.074242e-05
-100 24.75 -13.99999 -6.255576e-08 0.6846973 -0.7288275 183 183 183 255 0.9999835 0.1225681
100 25 -10.00001 -6.255576e-08 0.6846973 -0.7288275 121 121 121 255 2.741814e-06 0.1421612
-100 25 -9.999991 -6.255573e-08 0.6846976 -0.7288274 179 179 179 254 0.999985 0.1421751
-100 200 -9.999991 -8.58307e-08 0 -1 155 155 155 255 1 1
100 200 -10.00001 -8.58307e-08 0 -1 143 143 143 255 3.278255e-07 1
100 300 -10.00001 -8.583068e-08 0 -1 190 190 190 255 0 1
-100 300 -9.999991 -8.583068e-08 0 -1 130 130 130 255 1 1
-100 200 10 -8.742278e-08 0 -1 190 190 190 255 1 0.5075
100 200 10 -8.742278e-08 0 -1 81 81 81 255 0 0.5075
-100 200 -10 -8.583068e-08 0 -1 155 155 155 255 1 0.5075
100 200 -10 -8.583068e-08 0 -1 143 143 143 255 0 0.5075
3 0 1 2 
3 0 2 3 
3 4 0 3 
3 4 3 5 
3 6 7 4 
3 6 4 5 
3 9 8 20 
3 9 20 21 
3 10 11 12 
3 10 12 13 
3 14 10 13 
3 14 13 15 
3 16 17 14 
3 16 14 15 
3 19 18 23 
3 19 23 22 
